<svg width="50" height="36" viewBox="0 0 50 36" fill="none" xmlns="http://www.w3.org/2000/svg">
<path fill-rule="evenodd" clip-rule="evenodd" d="M36.2756 5.23772C37.7822 4.01818 39.6566 3.34341 41.5948 3.32282C42.6355 3.32975 43.6646 3.54248 44.6227 3.94877C45.5808 4.35506 46.449 4.94687 47.1775 5.69014C47.9059 6.43341 48.4801 7.31346 48.867 8.27957C49.2539 9.24569 49.4458 10.2788 49.4318 11.3194C49.4163 13.3442 48.6433 15.2897 47.265 16.773C45.8867 18.2563 44.003 19.1698 41.9848 19.3337H41.5948C39.9711 19.307 38.3929 18.7931 37.0648 17.8586C35.7368 16.924 34.7202 15.612 34.1469 14.0927C33.5736 12.5733 33.4699 10.9168 33.8495 9.33786C34.2291 7.75893 35.0743 6.33044 36.2756 5.23772ZM40.2828 15.5216C40.2497 15.5656 40.2069 15.6014 40.1576 15.626C40.1084 15.6506 40.0541 15.6634 39.999 15.6634C39.9439 15.6634 39.8897 15.6506 39.8405 15.626C39.7912 15.6014 39.7484 15.5656 39.7154 15.5216L39.5026 15.3265H39.3785L38.8111 14.5641L35.7614 11.5322C35.7172 11.4973 35.6814 11.4529 35.6568 11.4022C35.6322 11.3515 35.6193 11.2959 35.6193 11.2396C35.6193 11.1833 35.6322 11.1277 35.6568 11.077C35.6814 11.0263 35.7172 10.9819 35.7614 10.947L36.7188 9.98961C36.7519 9.94557 36.7947 9.9098 36.844 9.88518C36.8932 9.86056 36.9474 9.84774 37.0025 9.84774C37.0575 9.84774 37.1119 9.86056 37.1611 9.88518C37.2104 9.9098 37.2532 9.94557 37.2862 9.98961L40.1409 12.6492L45.8679 6.93992C45.9028 6.8988 45.9464 6.86577 45.9954 6.84311C46.0443 6.82046 46.0977 6.8087 46.1516 6.8087C46.2056 6.8087 46.2589 6.82046 46.3079 6.84311C46.3569 6.86577 46.4003 6.8988 46.4353 6.93992L47.4106 7.89734C47.4954 8.00631 47.5414 8.1405 47.5414 8.2786C47.5414 8.41669 47.4954 8.55084 47.4106 8.6598L40.2828 15.5216ZM2.32111 0.0781171C1.99095 0.0582328 1.66602 0.167235 1.41466 0.382215C1.1633 0.597196 1.00522 0.90136 0.973663 1.23061C0.968645 1.40811 1.00012 1.58474 1.0663 1.74952C1.13248 1.91431 1.23188 2.06373 1.35828 2.18846C1.48467 2.31319 1.63536 2.41055 1.801 2.47454C1.96665 2.53853 2.14369 2.56778 2.32111 2.56041H9.75031C10.1404 2.56041 10.7078 2.95047 10.7078 3.14551L14.1476 15.557L16.6299 24.3161C16.8487 25.0139 17.278 25.6271 17.8589 26.0714C18.4398 26.5158 19.1438 26.7697 19.8746 26.7983H38.7579C39.5061 26.7969 40.2285 26.5252 40.7921 26.0332C41.3558 25.5412 41.7227 24.8621 41.8253 24.121L42.18 20.1493H41.6126C40.8679 20.1493 40.2827 19.9365 39.7154 19.9365L39.3252 23.9437C39.3252 24.121 38.953 24.3161 38.7579 24.3161H19.8746C19.68 24.3208 19.4878 24.2721 19.319 24.1751C19.1502 24.0782 19.0112 23.9369 18.9172 23.7664L15.8497 12.135H32.8536V9.65272H15.8497C15.5831 9.62804 15.3156 9.69025 15.0873 9.83004L12.9951 2.59586C12.7762 1.898 12.347 1.28491 11.7661 0.840527C11.1852 0.396143 10.4811 0.142214 9.75031 0.113559L2.32111 0.0781171ZM35.123 28.2877C36.0939 28.2766 37.0321 28.638 37.7446 29.2977C38.457 29.9573 38.8895 30.865 38.9529 31.8339C38.9886 32.3575 38.9163 32.883 38.7404 33.3775C38.5645 33.8721 38.2889 34.3252 37.9306 34.7087C37.5723 35.0923 37.139 35.3981 36.6576 35.6072C36.1762 35.8163 35.6568 35.9242 35.1319 35.9242C34.607 35.9242 34.0878 35.8163 33.6063 35.6072C33.1249 35.3981 32.6915 35.0923 32.3332 34.7087C31.9749 34.3252 31.6993 33.8721 31.5234 33.3775C31.3476 32.883 31.2753 32.3575 31.311 31.8339C31.3743 30.8681 31.8042 29.9631 32.5129 29.3039C33.2215 28.6447 34.1552 28.2811 35.123 28.2877ZM35.123 33.4297C35.4992 33.3939 35.8477 33.2164 36.0979 32.9333C36.3481 32.6502 36.4813 32.2825 36.4706 31.9048C36.4327 31.5763 36.2755 31.2733 36.0286 31.0532C35.7818 30.8332 35.4626 30.7116 35.1319 30.7116C34.8012 30.7116 34.4822 30.8332 34.2353 31.0532C33.9885 31.2733 33.8311 31.5763 33.7932 31.9048C33.7822 32.2797 33.913 32.645 34.1596 32.9277C34.4061 33.2104 34.7501 33.3897 35.123 33.4297ZM23.1016 28.2877C24.0695 28.2811 25.0031 28.6447 25.7118 29.3039C26.4204 29.9631 26.8504 30.8681 26.9137 31.8339C26.9326 32.3488 26.8485 32.8624 26.6661 33.3444C26.4837 33.8263 26.2067 34.2669 25.8515 34.6402C25.4963 35.0136 25.0701 35.3122 24.5979 35.5184C24.1256 35.7246 23.6169 35.8343 23.1016 35.841C22.5819 35.8495 22.0661 35.7502 21.5868 35.5492C21.1074 35.3483 20.675 35.0501 20.3168 34.6735C19.9586 34.2969 19.6823 33.8502 19.5055 33.3614C19.3287 32.8727 19.2551 32.3525 19.2895 31.8339C19.3055 31.3503 19.417 30.8746 19.6175 30.4342C19.818 29.9938 20.1036 29.5975 20.4579 29.2679C20.8122 28.9383 21.2282 28.6821 21.6819 28.5139C22.1356 28.3456 22.6181 28.2688 23.1016 28.2877ZM23.1016 33.4297C23.3773 33.4121 23.6421 33.3153 23.8641 33.151C24.0862 32.9867 24.2562 32.7618 24.3537 32.5034C24.4513 32.2449 24.4722 31.9638 24.414 31.6938C24.3558 31.4237 24.221 31.1762 24.0256 30.9809C23.8303 30.7855 23.5827 30.6506 23.3127 30.5924C23.0426 30.5342 22.7615 30.5551 22.5031 30.6527C22.2446 30.7502 22.0198 30.9202 21.8555 31.1423C21.6912 31.3644 21.5944 31.6291 21.5768 31.9048C21.6056 32.2997 21.7754 32.6711 22.0554 32.951C22.3353 33.231 22.7067 33.4009 23.1016 33.4297Z" fill="#595959"/>
</svg>
