<svg width="68" height="85" viewBox="0 0 68 85" fill="none" xmlns="http://www.w3.org/2000/svg">
<path d="M26.7948 13.0733C28.2007 10.9373 30.2008 10.0868 32.6941 10.7645C35.1272 11.4267 36.6302 13.0015 36.7875 15.6327C40.477 14.8093 43.1762 17.5939 43.0577 21.0057C43.848 20.9028 44.6636 20.6523 45.45 20.7242C46.9724 20.8659 47.9744 21.8349 48.6424 23.1709C49.4191 24.7457 49.6386 26.4351 49.5124 28.1594C49.2929 31.1401 49.124 34.1306 48.7084 37.0919C48.4734 38.7793 49.0249 40.1134 49.6522 41.2882C51.3862 40.7814 53.0037 40.1347 54.6815 39.8493C60.8818 38.7987 68.9812 44.2359 66.8354 53.1411C65.6703 57.9569 62.909 61.8444 59.4914 65.2737C57.8214 66.9495 55.8816 68.3612 54.0174 69.8331C53.6193 70.1496 53.4562 70.3885 53.5688 70.8701C53.7436 71.606 53.8737 72.3536 54.031 73.1401C56.2661 73.3459 57.9904 74.3498 59.0176 76.3674C61.0527 80.3656 58.2234 84.828 53.598 84.8746C47.8269 84.9328 42.0557 84.9464 36.2865 84.9658C34.2418 84.9658 32.1892 85.0746 30.1581 84.9037C27.7347 84.7095 25.8705 82.8706 25.288 80.4569C25.0241 79.3184 25.1148 78.1264 25.548 77.041C25.9812 75.9556 26.7361 75.0287 27.7114 74.3848C28.3444 73.9751 28.3599 73.6081 28.2143 72.9634C27.6143 70.338 25.9734 68.4835 23.8918 66.9281C21.9363 65.4659 19.8838 64.1105 18.0779 62.4813C16.4405 60.9817 14.9526 59.3266 13.635 57.5394C12.8971 56.5529 12.5107 55.2519 12.1592 54.0441C11.1165 50.4517 10.1203 46.8418 9.20182 43.2145C8.66004 41.0785 8.44254 38.8861 8.89499 36.688C9.38822 34.2937 11.0757 32.7363 13.5127 32.5829C14.3438 32.5305 14.5729 32.1829 14.7555 31.4955C16.0623 26.5827 17.4973 21.7028 18.6896 16.7628C19.6178 12.9238 23.7384 11.3257 26.5773 13.0733C26.6201 13.0966 26.6939 13.0733 26.7948 13.0733ZM46.2967 40.694C46.2015 39.9172 45.986 39.1405 46.0403 38.3929C46.2967 34.8044 46.7083 31.2236 46.8812 27.6332C46.9394 26.4681 46.5278 25.2486 46.1685 24.1068C45.9472 23.4039 45.25 23.0738 44.516 23.3981C43.5587 23.8233 42.7159 24.5787 42.6188 25.5982C42.2693 29.3032 41.2032 32.9771 42.145 36.752C42.3392 37.4958 41.9236 38.0861 41.1411 38.2414C40.3585 38.3968 39.7818 38.0473 39.6537 37.2705C39.4303 35.954 39.1061 34.6121 39.176 33.2995C39.31 30.7479 39.7022 28.208 39.9527 25.6622C40.1275 23.9321 40.3061 22.2019 40.3838 20.4678C40.4343 19.3649 39.5527 18.3221 38.5759 18.093C37.7992 17.8988 36.9603 18.3959 36.4302 19.4523C36.1483 20.0239 35.9414 20.6296 35.8147 21.2543C35.4418 23.0738 35.2127 24.9263 34.768 26.7264C34.1446 29.2507 33.8709 31.7091 34.6418 34.2607C35.0166 35.5015 35.1078 36.8355 35.2379 38.1443C35.2614 38.3118 35.2481 38.4823 35.199 38.6441C35.1499 38.8059 35.0662 38.9551 34.9537 39.0813C34.8412 39.2075 34.7025 39.3077 34.5474 39.3749C34.3923 39.4421 34.2244 39.4748 34.0553 39.4706C33.3019 39.4706 32.8534 39.0589 32.7213 38.3444C32.4087 36.6394 32.096 34.9325 31.8378 33.2199C31.6708 32.1111 31.3523 30.9479 31.529 29.8818C32.2727 25.4156 33.1815 20.9611 34.0204 16.5046C34.3758 14.6171 33.2436 13.2034 31.3212 13.1316C29.6571 13.0617 28.624 14.5122 28.9405 16.1414C29.153 17.207 29.1378 18.3056 28.8959 19.3649C27.9017 23.3825 26.7599 27.3633 25.7035 31.3635C25.601 31.7676 25.5963 32.1903 25.6899 32.5965C26.3851 35.4666 27.121 38.3249 27.8259 41.1911C28.0201 41.9872 27.6512 42.6475 26.9152 42.8203C26.1385 43.0145 25.6258 42.6513 25.3617 41.9173C25.2899 41.7231 25.2414 41.5076 25.1889 41.3018C24.4879 38.5288 23.7559 35.7617 23.1092 32.9752C22.9594 32.3036 22.9666 31.6065 23.1306 30.9382C24.22 26.7244 25.3928 22.5339 26.49 18.3163C26.8939 16.7628 26.0414 15.4365 24.5171 15.0307C23.841 14.8664 23.1274 14.9764 22.5321 15.3366C21.9368 15.6968 21.5083 16.278 21.3402 16.9531C19.9071 22.1766 18.498 27.4066 17.1128 32.6431C17.0546 32.8645 17.0779 33.2257 17.2197 33.3616C18.4236 34.5267 19.0702 36.02 19.4858 37.5851C20.3907 40.995 21.2179 44.4262 22.0354 47.8593C22.1675 48.4089 22.4238 48.5487 22.9383 48.6633C24.5637 49.0244 26.1851 49.44 27.7754 49.9274C28.5677 50.174 29.292 50.6459 30.0824 51.0342C28.5464 43.1096 38.0478 36.4685 46.2967 40.694ZM40.8595 41.8474C39.7702 42.1018 38.6381 42.2358 37.6011 42.6242C34.0417 43.9621 32.164 47.003 32.6999 50.5527C32.9854 52.4945 33.8864 54.1955 34.968 55.7956C38.3895 60.8444 42.9955 64.6892 47.7841 68.3515C48.9764 69.2603 49.99 69.2117 51.2056 68.5573C53.7203 67.2155 55.8563 65.4019 57.7981 63.3571C60.573 60.4444 62.9479 57.2423 64.1305 53.3178C64.9558 50.5798 64.8334 47.9428 62.9654 45.6107C59.7283 41.5794 53.8387 41.1794 49.9667 44.7077C48.7764 45.7932 48.4133 45.7855 47.3103 44.6825C45.5316 42.9213 43.413 41.9931 40.8634 41.8474H40.8595ZM51.0095 71.4856L50.8871 71.7458C49.9997 71.606 48.9647 71.7148 48.2443 71.2895C42.3237 67.7942 37.1603 63.4076 33.1737 57.7588C30.3639 53.7761 26.6764 51.4284 21.75 51.1372C20.2237 51.0478 20.0411 50.8323 19.7072 49.3312C19.0994 46.5991 18.5265 43.8572 17.8274 41.1484C17.396 39.5025 16.845 37.8904 16.1788 36.3248C15.9594 35.8006 15.2973 35.2064 14.7594 35.117C13.0972 34.8413 11.6019 35.8472 11.4582 37.5055C11.2943 39.1963 11.3905 40.9023 11.7437 42.564C12.5845 46.236 13.6292 49.8672 14.6894 53.4848C15.0139 54.6534 15.5268 55.7612 16.208 56.7646C17.0665 57.9905 18.0802 59.1001 19.2236 60.0657C21.5441 61.992 23.9986 63.7552 26.3851 65.6077C28.6299 67.3553 30.2086 69.5457 30.7173 72.3808C30.8727 73.2527 31.2688 73.3906 32.0591 73.3789C38.2555 73.2954 44.45 73.2605 50.6464 73.2061C50.8735 73.2061 51.1007 73.1653 51.3726 73.1401C51.2444 72.5381 51.1299 72.0041 51.0134 71.4856H51.0095ZM42.3528 82.3987V82.2414C46.1685 82.2414 49.9861 82.2745 53.7999 82.2279C55.7048 82.2046 57.0214 80.8686 57.0758 79.1034C57.134 77.2024 55.6641 75.7402 53.6368 75.7538C46.0973 75.8004 38.5572 75.8593 31.0164 75.9305C30.7728 75.929 30.5298 75.9551 30.2921 76.0082C29.5099 76.1831 28.8188 76.6384 28.3494 77.2881C27.88 77.9378 27.6648 78.737 27.7444 79.5345C27.8259 80.3167 28.1939 81.041 28.7776 81.5681C29.3613 82.0951 30.1193 82.3875 30.9057 82.389C34.7253 82.4201 38.541 82.3987 42.3567 82.3987H42.3528Z" fill="#8E7A60"/>
<path d="M42.5818 10.178C41.4031 10.178 40.7332 9.32751 41.1118 8.50029C41.8594 6.87303 42.6653 5.27296 43.5236 3.70008C43.8692 3.0651 44.5236 2.88451 45.1839 3.2554C45.8441 3.62629 46.0829 4.19718 45.7547 4.88265C45.0052 6.43612 44.2382 7.98959 43.409 9.51781C43.2226 9.8654 42.7488 10.0596 42.5818 10.178Z" fill="#8E7A60"/>
<path d="M5.14537 15.8367C7.0872 16.9027 8.94164 17.8659 10.7145 18.9436C10.9417 19.0834 10.9631 20.0077 10.7359 20.3029C10.4776 20.6466 9.71252 20.9786 9.37658 20.833C7.67659 20.0997 6.02238 19.2645 4.42297 18.3319C4.10451 18.1377 3.93168 17.3455 4.0346 16.9086C4.12587 16.5338 4.69098 16.2542 5.14537 15.8367Z" fill="#8E7A60"/>
<path d="M56.1066 30.4917C55.9199 30.5089 55.732 30.5089 55.5454 30.4917C54.8191 30.4082 54.3608 30.0082 54.3356 29.2586C54.3103 28.5091 54.7123 28.0236 55.4541 27.9596C57.1493 27.8159 58.8484 27.7013 60.5475 27.6275C61.3534 27.5926 61.9787 28.1615 61.9631 28.8703C61.9456 29.647 61.5165 30.1305 60.732 30.1927C59.2776 30.3034 57.8212 30.381 56.1066 30.4917Z" fill="#8E7A60"/>
<path d="M51.4503 18.6425C51.1882 18.4037 50.6503 18.1338 50.528 17.7357C50.4056 17.3376 50.528 16.59 50.827 16.3764C52.2931 15.2909 53.8252 14.2909 55.3864 13.3491C55.9534 13.0054 56.5865 13.2112 56.9865 13.7996C57.3652 14.353 57.3496 15.0036 56.835 15.3667C55.2718 16.4696 53.6427 17.4794 52.0348 18.5163C51.9397 18.5746 51.8018 18.5688 51.4503 18.6425Z" fill="#8E7A60"/>
<path d="M2.06737 33.5366C1.90464 33.541 1.74267 33.5128 1.59102 33.4536C1.43936 33.3944 1.30108 33.3054 1.18435 33.192C1.06762 33.0785 0.974783 32.9428 0.911329 32.7929C0.847876 32.643 0.815101 32.4818 0.814901 32.319C0.774123 31.5423 1.25376 30.9889 2.17418 30.9287C3.81115 30.818 5.45201 30.7578 7.09092 30.6879C7.90649 30.6549 8.33564 31.1268 8.4502 31.8744C8.55118 32.5695 7.96084 33.1832 7.16857 33.2336C5.56268 33.3463 3.94319 33.4298 2.06737 33.5366Z" fill="#8E7A60"/>
<path d="M15.3204 4.54858C15.7573 4.89617 16.1864 5.10589 16.4253 5.44765C17.3476 6.77004 18.2234 8.1235 19.0856 9.48278C19.5535 10.2207 19.3827 10.9994 18.7302 11.3955C18.0778 11.7916 17.4195 11.6149 16.9282 10.8887C16.0252 9.55463 15.1087 8.22448 14.299 6.83412C14.0877 6.38568 14.0626 5.87185 14.229 5.40493C14.3611 5.06317 14.8834 4.87287 15.3204 4.54858Z" fill="#8E7A60"/>
<path d="M28.4512 2.68071C28.4512 2.22244 28.4512 1.7661 28.4512 1.30783C28.4512 0.546632 28.8745 0.0844786 29.5988 0.00874705C30.3231 -0.0669845 30.9134 0.354391 30.9736 1.0651C31.1309 2.88654 31.2105 4.71769 31.2299 6.54496C31.2299 7.25373 30.694 7.61685 29.9871 7.60714C29.1677 7.60714 28.7638 7.08673 28.7016 6.33524C28.6007 5.11965 28.5599 3.89824 28.4939 2.68071H28.4512Z" fill="#8E7A60"/>
<path d="M42.0985 49.7507C43.1801 49.8983 44.3918 50.0323 45.5938 50.242C46.3142 50.3682 46.856 50.2711 47.3415 49.6595C48.0412 48.7681 48.8107 47.9337 49.6425 47.1642C50.0134 46.8244 50.7009 46.5059 51.1125 46.6263C51.5242 46.7467 51.9533 47.3797 52.0834 47.8652C52.4116 49.0653 52.5359 50.3177 52.8271 51.5294C52.9427 51.9065 53.1985 52.2248 53.5418 52.4188C54.6234 52.9761 55.7826 53.3897 56.8429 53.9723C57.2895 54.2189 57.8235 54.7607 57.8448 55.1917C57.8662 55.6228 57.3885 56.2267 56.9652 56.5025C55.9244 57.1841 54.767 57.687 53.7029 58.3375C53.3751 58.5643 53.1471 58.9085 53.066 59.2987C52.8718 60.5318 52.8466 61.792 52.6194 63.0154C52.532 63.4853 52.1572 64.1028 51.7611 64.2562C51.3649 64.4096 50.6736 64.1921 50.3066 63.895C49.3357 63.1183 48.5066 62.159 47.5473 61.359C47.1816 61.0887 46.7275 60.966 46.2754 61.0153C45.0734 61.1842 43.8967 61.5454 42.6927 61.693C42.2228 61.7513 41.5276 61.592 41.2636 61.2658C40.9995 60.9396 40.9975 60.2133 41.1665 59.7725C41.6111 58.6074 42.2539 57.5278 42.7199 56.3743C42.8648 55.9734 42.8509 55.5323 42.6811 55.1413C42.0985 53.9762 41.3839 52.8654 40.7761 51.7061C40.2499 50.7042 40.8557 49.7604 42.0985 49.7507ZM50.3008 60.324C50.06 57.6753 51.229 56.1258 53.6913 55.351C51.1669 54.7684 49.8988 53.3062 50.0154 50.7003C49.4449 51.1722 48.9197 51.6961 48.4464 52.2654C47.9066 52.9373 47.258 53.1373 46.4249 52.9645C45.7763 52.8285 45.1123 52.7703 44.0831 52.6402C46.0502 54.6325 46.0521 56.5899 44.5394 58.7298C46.9783 57.5705 48.7648 58.2695 50.3008 60.324Z" fill="#8E7A60"/>
</svg>
