<svg width="86" height="85" viewBox="0 0 86 85" fill="none" xmlns="http://www.w3.org/2000/svg">
<g clip-path="url(#clip0_36_210)">
<path d="M85.5082 78.0646C85.455 78.1239 85.3814 78.1731 85.3568 78.2426C84.6142 80.2891 83.3989 81.1895 81.265 81.1629C80.6389 81.1629 80.3096 81.3204 79.9965 81.9098C78.9245 83.9399 77.1588 85.0081 74.8817 84.9999C72.6046 84.9917 70.8062 83.8969 69.7301 81.8239C69.4784 81.3389 69.2104 81.1629 68.66 81.1649C61.9617 81.1854 55.2647 81.1854 48.569 81.1649C48.0146 81.1649 47.7507 81.345 47.5011 81.828C46.4249 83.903 44.6614 84.9979 42.3495 84.9979C40.0376 84.9979 38.2576 83.9092 37.1937 81.8321C36.9155 81.2898 36.5983 81.1465 36.0419 81.167C35.1028 81.2059 34.1596 81.1915 33.2205 81.167C30.8452 81.1281 29.2392 79.4909 29.231 77.113C29.231 75.5086 29.2167 73.9022 29.231 72.2978C29.3087 63.8393 29.3926 55.3807 29.4826 46.9222C29.5174 43.6479 31.5797 41.6159 34.8695 41.6138C45.5779 41.6056 56.2849 41.6056 66.9906 41.6138C70.3275 41.6138 72.3407 43.6602 72.3509 47.0225C72.3509 48.9031 72.3509 50.7838 72.3509 52.7893C73.1693 52.7893 73.9304 52.8118 74.6955 52.7893C76.3752 52.7299 77.7521 53.3418 78.9224 54.539C80.5858 56.2396 82.3432 57.8521 83.9431 59.6121C84.6203 60.359 84.9947 61.3822 85.5082 62.2724V78.0646ZM69.3966 70.5502C69.4129 70.3455 69.4334 70.1961 69.4375 70.0365C69.5371 62.6694 69.6366 55.2955 69.7362 47.9147C69.7362 47.6671 69.7362 47.4174 69.7362 47.1678C69.7362 45.0497 68.8912 44.2005 66.7696 44.2005H35.0578C32.9689 44.2005 32.0605 45.1009 32.0605 47.1719C32.0605 54.6754 32.0605 62.1789 32.0605 69.6825V70.5583L69.3966 70.5502ZM48.3931 78.5312H68.793C69.636 75.4472 71.6573 73.585 74.2741 73.4151C75.61 73.3292 76.8581 73.5563 77.9977 74.2869C79.5526 75.2897 80.3811 76.7651 80.6983 78.5209C82.4925 78.656 82.8669 78.3163 82.8669 76.6444C82.8669 72.2139 82.8547 67.7854 82.8669 63.357C82.8819 62.9854 82.8166 62.615 82.6753 62.271C82.5341 61.927 82.3203 61.6176 82.0486 61.3638C80.5244 59.874 78.9163 58.4517 77.5475 56.8269C76.0806 55.0792 74.2741 55.3596 72.3366 55.4333V71.1068C72.3366 72.8544 71.9519 73.2351 70.1822 73.2351H31.8211C31.8211 74.6307 31.8211 75.8954 31.8211 77.1724C31.8211 78.0933 32.2712 78.5435 33.1898 78.566C34.0082 78.5844 34.8511 78.5455 35.6797 78.5783C36.1973 78.6008 36.4101 78.4718 36.5595 77.905C37.1733 75.57 38.7036 74.0516 41.0605 73.5379C43.3233 73.0447 45.3242 73.6832 46.7666 75.5168C47.454 76.3579 47.8141 77.4323 48.3849 78.5312H48.3931ZM45.4081 79.45C45.3651 77.4814 44.0087 76.0775 42.1715 76.1C40.3854 76.1226 39.1026 77.4916 39.1476 79.3272C39.1905 81.0953 40.6513 82.4439 42.4681 82.3969C44.1171 82.3477 45.4347 81.0299 45.4081 79.45ZM77.8401 79.7283C77.7828 77.4773 76.4448 76.012 74.5196 76.0959C72.8378 76.1676 71.6369 77.5428 71.686 79.3354C71.7351 81.1281 73.2102 82.4501 75.0352 82.3887C76.5982 82.3396 77.8769 81.1281 77.8401 79.7283Z" fill="#8E7A60"/>
<path d="M38.0078 0C39.5054 0.21692 41.0153 0.370403 42.4966 0.66304C52.538 2.65011 60.3329 7.99331 65.8999 16.5514C69.9795 22.8216 71.6449 29.7692 71.3605 37.2202C71.3441 37.6071 71.2948 37.9918 71.2132 38.3703C71.1899 38.5354 71.1332 38.6939 71.0467 38.8363C70.9602 38.9787 70.8455 39.1021 70.7098 39.1987C70.5741 39.2954 70.4202 39.3635 70.2573 39.3987C70.0945 39.434 69.9262 39.4357 69.7626 39.4038C69.0138 39.2789 68.6721 38.7898 68.6783 38.0613C68.6905 36.899 68.7683 35.7386 68.7478 34.5824C68.4818 19.265 57.3622 6.65495 43.3783 3.5137C25.0387 -0.605737 7.67288 10.6762 3.77743 29.1226C0.544873 44.3888 9.19504 60.3325 23.7518 65.9765C24.4474 66.2446 25.1512 66.4902 25.8468 66.7562C26.6652 67.0693 27.0519 67.7139 26.8309 68.4138C26.5936 69.1751 25.8509 69.4882 24.92 69.1832C21.786 68.1737 18.8146 66.7159 16.098 64.8551C7.90201 59.1804 2.79947 51.4428 1.04612 41.6303C-1.71588 26.2719 6.14865 10.3201 21.0328 3.32134C24.8559 1.49544 28.9926 0.416751 33.2203 0.143252C33.4361 0.113339 33.6489 0.0654193 33.8566 0H38.0078Z" fill="#8E7A60"/>
<path d="M29.7242 9.94557C30.8597 9.65294 31.9542 9.25798 33.0815 9.1045C35.6083 8.75865 38.2352 10.4347 38.7058 12.7164C38.8777 13.5514 38.7774 14.4845 38.6055 15.3317C38.5188 15.649 38.522 15.9841 38.6149 16.2997C38.7078 16.6152 38.8866 16.8986 39.1313 17.1183C39.5695 17.5404 39.9694 18.0006 40.3262 18.4935C41.7911 20.6258 40.7497 22.9117 38.1821 23.2534L35.8435 23.5645L35.7515 23.8101C36.0359 24.0761 36.3141 24.3483 36.6026 24.6082C37.2348 25.1812 37.9672 25.6723 38.4869 26.3333C39.5242 27.6512 39.3891 29.2719 38.2189 30.4773C36.842 31.8914 35.15 32.1738 33.3291 31.611C32.4125 31.3265 31.5614 30.8334 30.651 30.5243C29.1431 30.0148 27.6414 29.362 26.0845 29.1573C23.5066 28.8197 20.7078 30.0434 20.3845 34.036C20.2209 36.0435 20.0715 38.0674 19.6828 40.0361C19.4782 41.1064 18.9074 42.1767 18.265 43.0791C16.5546 45.4816 13.6166 45.8541 11.2618 44.0839C9.29358 42.6044 8.48134 40.4986 8.12944 38.1657C7.89416 36.6083 7.76732 35.0347 7.45634 33.4957C7.29062 32.6772 6.87735 31.8955 6.49885 31.1342C6.12035 30.3729 6.18992 29.628 6.80779 29.2249C7.42565 28.8217 8.19492 28.9936 8.67162 29.6956C9.85621 31.4432 10.2142 33.4425 10.4454 35.493C10.5857 36.8372 10.816 38.1703 11.1349 39.4836C11.3363 40.1726 11.6854 40.8095 12.1579 41.3499C13.6944 43.1773 15.6707 42.987 16.618 40.8076C17.1643 39.549 17.3545 38.1145 17.5755 36.7373C17.8271 35.1861 17.7801 33.5797 18.132 32.0551C18.9503 28.4227 22.4632 26.102 26.1786 26.5072C28.2397 26.744 30.2413 27.3506 32.0872 28.2978C32.7562 28.6213 33.4458 28.9002 34.1516 29.1328C34.4544 29.2392 34.8451 29.3251 35.1234 29.2228C35.6124 29.0427 36.1463 28.791 36.4471 28.4043C36.5535 28.2651 36.0972 27.5755 35.7801 27.2562C35.3177 26.7896 34.6917 26.4847 34.2334 26.0161C33.3741 25.1361 32.9424 24.0843 33.37 22.8401C33.7792 21.6634 34.6856 21.1108 35.8558 20.9267C36.6742 20.7998 37.4926 20.7036 38.5953 20.5562C38.1268 19.9648 37.8158 19.5105 37.4414 19.1238C36.7294 18.3707 36.042 17.5971 35.9704 16.5084C35.9345 15.9317 35.9717 15.3528 36.0809 14.7853C36.4737 12.7246 35.1234 11.2287 33.0775 11.7485C31.8049 12.0718 30.6224 12.8249 29.4562 13.4675C28.7606 13.8481 28.1672 14.5336 27.2936 13.9791C26.42 13.4245 26.7085 12.655 26.8681 11.8876C26.9683 11.4026 26.999 10.9033 27.0727 10.4101C27.165 9.82041 27.133 9.21791 26.9787 8.64133C26.8243 8.06475 26.5511 7.52684 26.1766 7.06217C25.9188 6.72656 25.706 6.14333 25.8206 5.78316C25.9556 5.35955 26.4343 4.8152 26.821 4.75995C27.2589 4.70061 27.9074 5.01371 28.2102 5.37388C29.2025 6.56489 29.806 7.94622 29.7119 9.55471C29.7055 9.68511 29.7096 9.81583 29.7242 9.94557Z" fill="#8E7A60"/>
<path d="M56.4682 28.2058C58.1642 28.1648 59.6311 28.8197 60.8239 29.9391C61.9062 30.95 62.8412 32.1267 63.7864 33.2727C64.5414 34.1874 65.1981 35.18 65.9265 36.1172C66.4727 36.8171 66.485 37.5088 65.9019 38.0327C65.7775 38.1555 65.6284 38.2503 65.4644 38.3108C65.3004 38.3713 65.1254 38.3961 64.9511 38.3835C64.7768 38.3709 64.6072 38.3212 64.4536 38.2378C64.3 38.1543 64.166 38.0391 64.0606 37.8997C63.1952 36.8642 62.4668 35.712 61.6055 34.6827C60.6974 33.5782 59.7144 32.5375 58.6634 31.568C58.2677 31.2149 57.7896 30.9668 57.273 30.8466C56.7565 30.7265 56.218 30.7381 55.7071 30.8804C54.9112 31.0851 54.3772 31.568 54.2933 32.4091C54.2238 33.111 54.4263 33.6636 55.2631 33.772C55.7277 33.8366 56.1861 33.9393 56.6339 34.079C57.371 34.2928 58.0144 34.7491 58.46 35.3742C58.9056 35.9992 59.1272 36.7564 59.089 37.5231C59.0358 38.4501 58.5304 39.019 57.7612 39.0231C56.9919 39.0272 56.4784 38.5013 56.4763 37.5415C56.4763 36.9276 56.2411 36.6043 55.6457 36.5183C55.4288 36.4835 55.2181 36.4037 54.9992 36.3771C53.4197 36.1725 52.3211 35.3539 51.8648 33.8211C51.3861 32.2045 51.7666 30.7515 52.9512 29.5503C53.8985 28.568 55.1056 28.1587 56.4682 28.2058Z" fill="#8E7A60"/>
<path d="M50.1445 14.4354C50.3839 13.3385 50.5537 12.2232 50.8831 11.1611C51.1573 10.2689 51.9061 9.94348 52.6201 10.2259C53.3341 10.5083 53.5899 11.2204 53.2891 12.0881C52.6753 13.8542 52.8799 15.6305 53.2891 17.3904C53.3444 17.6257 53.7474 17.8549 54.0318 17.9388C54.3587 17.999 54.6944 17.9906 55.0179 17.9143C56.757 17.6339 58.1543 18.211 59.2959 19.5289C59.9097 20.2329 60.4744 20.9389 61.6529 20.6667C62.283 20.5214 62.7536 21.1005 62.8804 21.7738C62.9233 22.094 62.8434 22.4186 62.6566 22.6821C62.4698 22.9456 62.1901 23.1286 61.8738 23.194C60.7567 23.4314 59.6581 23.3987 58.7395 22.5985C58.2165 22.1478 57.7225 21.6646 57.2603 21.1517C56.7529 20.591 56.1616 20.3331 55.4189 20.4682C51.9818 21.0965 50.6683 19.3734 50.4576 16.3754C50.4146 15.743 50.3328 15.1148 50.2693 14.4824L50.1445 14.4354Z" fill="#8E7A60"/>
<path d="M32.8275 38.006C32.7661 38.2986 32.7375 38.4889 32.6863 38.6751C32.4817 39.3893 32.0132 39.7372 31.2767 39.6779C30.622 39.6267 30.1637 39.064 30.1494 38.3641C30.1371 37.8156 30.0757 37.2672 30.1023 36.727C30.133 36.0639 30.444 35.5216 31.1253 35.407C31.9599 35.2539 32.8185 35.2952 33.6345 35.5277C34.4506 35.7601 35.2021 36.1775 35.8309 36.7474C36.4201 37.2611 36.4774 37.9528 36.0355 38.5258C35.5936 39.0988 34.9 39.1908 34.2576 38.7959C33.9282 38.5912 33.607 38.3866 33.2735 38.182C33.1293 38.1126 32.9802 38.0538 32.8275 38.006Z" fill="#8E7A60"/>
</g>
<defs>
<clipPath id="clip0_36_210">
<rect width="85" height="85" fill="white" transform="translate(0.5)"/>
</clipPath>
</defs>
</svg>
