<svg width="26" height="25" viewBox="0 0 26 25" fill="none" xmlns="http://www.w3.org/2000/svg">
    <path
        d="M19.7704 4.42993C19.5791 4.42993 19.3897 4.46776 19.2132 4.54125C19.0366 4.61475 18.8763 4.72245 18.7415 4.85816C18.6067 4.99386 18.5001 5.15489 18.4278 5.33197C18.3556 5.50905 18.319 5.69867 18.3203 5.88993C18.3203 6.2745 18.4731 6.64331 18.745 6.91524C19.017 7.18716 19.3858 7.33993 19.7704 7.33993C19.9616 7.34125 20.1513 7.30472 20.3283 7.23244C20.5054 7.16016 20.6665 7.05356 20.8022 6.91879C20.9379 6.78401 21.0456 6.62372 21.1191 6.44714C21.1925 6.27056 21.2304 6.08119 21.2304 5.88993C21.2304 5.50272 21.0765 5.13136 20.8027 4.85756C20.5289 4.58375 20.1576 4.42993 19.7704 4.42993Z"
        fill="white" />
    <path
        d="M13.3107 6.29993C11.691 6.30257 10.1384 6.94715 8.99316 8.09243C7.84789 9.2377 7.20333 10.7903 7.20068 12.4099C7.20333 14.0287 7.84821 15.5802 8.99377 16.7239C10.1393 17.8676 11.6919 18.5099 13.3107 18.5099C14.9242 18.502 16.4691 17.8562 17.6082 16.7133C18.7473 15.5705 19.3881 14.0235 19.3907 12.4099C19.3881 10.7954 18.7476 9.24739 17.6088 8.10297C16.47 6.95854 14.9251 6.31048 13.3107 6.29993ZM13.3107 16.2999C12.2762 16.3 11.2837 15.8911 10.5494 15.1624C9.81509 14.4337 9.3986 13.4444 9.39069 12.4099C9.39068 11.372 9.8023 10.3765 10.5353 9.6416C11.2683 8.90674 12.2627 8.49257 13.3007 8.48993C14.3386 8.49257 15.3331 8.90674 16.0661 9.6416C16.7991 10.3765 17.2107 11.372 17.2107 12.4099C17.2081 13.4444 16.7966 14.4359 16.0661 15.1683C15.3356 15.9007 14.3451 16.3147 13.3107 16.3199V16.2999Z"
        fill="white" />
    <path
        d="M18.1606 24.81H8.26056C6.28551 24.8074 4.39212 24.0216 2.99554 22.625C1.59897 21.2285 0.813193 19.3351 0.810547 17.36V7.45C0.813193 5.47495 1.59897 3.58155 2.99554 2.18498C4.39212 0.788404 6.28551 0.00264575 8.26056 0H18.1606C20.1356 0.00264575 22.029 0.788404 23.4256 2.18498C24.8222 3.58155 25.6079 5.47495 25.6105 7.45V17.36C25.6079 19.3351 24.8222 21.2285 23.4256 22.625C22.029 24.0216 20.1356 24.8074 18.1606 24.81ZM8.26056 2.34C7.58866 2.33869 6.92313 2.46989 6.302 2.7261C5.68087 2.98231 5.11638 3.35851 4.64081 3.83314C4.16524 4.30778 3.78794 4.87155 3.53052 5.49218C3.27309 6.1128 3.14056 6.7781 3.14056 7.45V17.36C3.14056 18.0319 3.27309 18.6972 3.53052 19.3178C3.78794 19.9385 4.16524 20.5022 4.64081 20.9769C5.11638 21.4515 5.68087 21.8277 6.302 22.0839C6.92313 22.3401 7.58866 22.4713 8.26056 22.47H18.1606C19.5168 22.47 20.8175 21.9319 21.7774 20.9739C22.7373 20.0159 23.2779 18.7162 23.2806 17.36V7.45C23.2779 6.09382 22.7373 4.7941 21.7774 3.83608C20.8175 2.87805 19.5168 2.34 18.1606 2.34H8.26056Z"
        fill="white" />
</svg>