<svg width="22" height="21" viewBox="0 0 22 21" fill="none" xmlns="http://www.w3.org/2000/svg">
<path d="M1.01228 6.90849H5.34326V20.81H1.01228V6.90849ZM3.12497 0C3.62266 4.39326e-06 4.10916 0.147719 4.52283 0.424441C4.9365 0.701164 5.25871 1.09444 5.44868 1.55445C5.63865 2.01445 5.68781 2.52049 5.58994 3.00847C5.49208 3.49644 5.25157 3.94439 4.89891 4.29557C4.54625 4.64675 4.09729 4.88536 3.60891 4.98117C3.12053 5.07698 2.61474 5.02568 2.15553 4.83377C1.69633 4.64186 1.30441 4.31799 1.02943 3.90316C0.75445 3.48833 0.608771 3.00122 0.610862 2.50353C0.613656 1.83858 0.879778 1.20182 1.35096 0.73262C1.82214 0.263417 2.46001 -5.86952e-06 3.12497 0Z" fill="white"/>
<path d="M8.01562 6.90849H12.1671V8.80991H12.2199C12.6371 8.10128 13.2385 7.51888 13.9601 7.12458C14.6818 6.73028 15.4967 6.53879 16.3185 6.57046C20.6917 6.57046 21.4946 9.44371 21.4946 13.1937V20.81H17.1741V14.0599C17.1741 12.4437 17.1741 10.3733 14.9347 10.3733C12.6952 10.3733 12.336 12.1268 12.336 13.9332V20.81H8.01562V6.90849Z" fill="white"/>
</svg>
