<svg width="42" height="42" viewBox="0 0 42 42" fill="none" xmlns="http://www.w3.org/2000/svg">
<circle cx="20.9322" cy="21" r="20.3447" fill="#BEA88A"/>
<path d="M21.2992 32.043L20.6689 31.5027C19.8 30.7751 12.2129 24.2226 12.2129 19.4296C12.2129 14.4114 16.281 10.3433 21.2992 10.3433C26.3175 10.3433 30.3856 14.4114 30.3856 19.4296C30.3856 24.2227 22.7985 30.7752 21.9331 31.5063L21.2992 32.043ZM21.2992 12.308C17.368 12.3124 14.1821 15.4983 14.1777 19.4296C14.1777 22.4407 18.8456 27.2508 21.2992 29.4524C23.753 27.2499 28.4208 22.437 28.4208 19.4296C28.4164 15.4983 25.2306 12.3125 21.2992 12.308Z" fill="#F5F5F5"/>
<path d="M21.299 23.0316C19.3098 23.0316 17.6973 21.4191 17.6973 19.4299C17.6973 17.4407 19.3098 15.8281 21.299 15.8281C23.2882 15.8281 24.9008 17.4407 24.9008 19.4299C24.9008 21.4191 23.2882 23.0316 21.299 23.0316ZM21.299 17.629C20.3044 17.629 19.4981 18.4352 19.4981 19.4298C19.4981 20.4244 20.3044 21.2307 21.299 21.2307C22.2936 21.2307 23.0999 20.4244 23.0999 19.4298C23.0999 18.4352 22.2937 17.629 21.299 17.629Z" fill="#F5F5F5"/>
</svg>
