<svg width="42" height="42" viewBox="0 0 42 42" fill="none" xmlns="http://www.w3.org/2000/svg">
<circle cx="20.815" cy="21" r="20.3447" fill="#BEA88A"/>
<circle cx="20.815" cy="21" r="20.3447" fill="#BEA88A"/>
<path d="M27.0314 11.312H14.5985C13.4213 11.3135 12.2927 11.8011 11.4603 12.6679C10.6279 13.5347 10.1596 14.71 10.1582 15.9358V27.033C10.1596 28.2588 10.6279 29.434 11.4603 30.3009C12.2927 31.1677 13.4213 31.6553 14.5985 31.6568H27.0314C28.2086 31.6553 29.3372 31.1677 30.1697 30.3009C31.0021 29.434 31.4703 28.2588 31.4718 27.033V15.9358C31.4703 14.71 31.0021 13.5347 30.1697 12.6679C29.3372 11.8011 28.2086 11.3135 27.0314 11.312ZM14.5985 13.1615H27.0314C27.5632 13.1626 28.0825 13.3294 28.5224 13.6404C28.9624 13.9514 29.303 14.3923 29.5002 14.9066L22.6994 21.9893C22.199 22.5084 21.5214 22.7998 20.815 22.7998C20.1086 22.7998 19.431 22.5084 18.9305 21.9893L12.1297 14.9066C12.327 14.3923 12.6675 13.9514 13.1075 13.6404C13.5475 13.3294 14.0668 13.1626 14.5985 13.1615ZM27.0314 29.8072H14.5985C13.8919 29.8072 13.2143 29.5149 12.7147 28.9947C12.215 28.4744 11.9343 27.7687 11.9343 27.033V17.323L17.6748 23.2969C18.5083 24.1627 19.6376 24.649 20.815 24.649C21.9923 24.649 23.1216 24.1627 23.9552 23.2969L29.6956 17.323V27.033C29.6956 27.7687 29.4149 28.4744 28.9153 28.9947C28.4157 29.5149 27.738 29.8072 27.0314 29.8072Z" fill="#F5F5F5"/>
</svg>
