<svg width="90" height="85" viewBox="0 0 90 85" fill="none" xmlns="http://www.w3.org/2000/svg">
<path d="M0.930664 55.7633C1.47304 54.538 2.45049 53.9469 3.72645 53.6269C5.66575 53.1392 7.56995 52.5188 9.49169 51.9627C11.5305 51.3774 12.8084 52.0739 13.4269 54.0971L13.7195 55.0726C15.9378 54.3566 18.1171 53.6094 20.3217 52.9538C22.2084 52.3939 24.1067 51.8574 26.0323 51.4633C27.9073 51.0731 29.7392 51.475 31.4795 52.2437C36.398 54.4112 41.3029 56.6159 46.2058 58.8166C48.0904 59.6633 49.1323 61.2281 49.7664 63.1088C49.8386 63.3234 49.8912 63.5459 49.977 63.8502C50.5897 63.6454 51.173 63.46 51.7525 63.2649C58.062 61.0486 64.4126 58.9376 70.6636 56.5652C73.9335 55.3243 77.3399 57.5407 77.8374 61.152C78.1711 63.579 77.1156 65.2823 75.0885 66.408C72.6127 67.7737 70.0822 69.0594 67.5615 70.351C60.4852 73.9759 53.3562 77.5073 46.3365 81.2376C43.2149 82.8959 40.1596 83.1125 36.919 81.9439C32.8322 80.4689 28.7481 78.9861 24.6666 77.4956C22.8463 76.8322 22.3254 76.84 20.3393 77.6809C20.4817 78.2077 20.63 78.7481 20.7783 79.2885C21.2524 81.0093 20.5168 82.4102 18.8273 82.9135C16.609 83.5769 14.3848 84.2148 12.1587 84.8489C10.4028 85.3484 9.02539 84.5933 8.51228 82.8374C6.09953 74.6094 3.6894 66.382 1.28186 58.1552C1.18226 57.8689 1.06564 57.5887 0.932617 57.3163L0.930664 55.7633ZM19.6018 75.2461C20.1866 75.1316 20.7644 74.9838 21.3323 74.8032C22.5166 74.3505 23.6053 74.4715 24.7993 74.9222C29.2359 76.5981 33.7018 78.194 38.1754 79.7704C40.4991 80.5879 42.7037 80.3655 44.9532 79.1949C53.8069 74.5827 62.723 70.0837 71.6098 65.5378C72.5502 65.0559 73.4711 64.5311 74.3686 63.977C75.266 63.4229 75.5645 62.5723 75.4397 61.5344C75.2036 59.5697 73.5199 58.1981 71.8986 58.7639C64.8008 61.2352 57.7122 63.7345 50.6326 66.2617C50.4852 66.3235 50.3531 66.4169 50.2456 66.5352C50.1381 66.6535 50.0578 66.7938 50.0102 66.9465C49.3391 70.6534 45.9131 73.0239 41.6209 71.5372C38.3256 70.3997 35.0831 69.1082 31.8229 67.8732C30.9606 67.5454 30.6387 66.9211 30.9079 66.2109C31.1615 65.5456 31.862 65.3037 32.7126 65.6159C34.1329 66.1388 35.5435 66.6909 36.9677 67.2079C39.0612 67.9688 41.137 68.798 43.2695 69.4262C44.6879 69.8437 46.0146 69.4067 46.9218 68.1502C48.5606 65.8773 47.5578 62.1021 45.002 60.9315C40.3098 58.8127 35.602 56.731 30.9099 54.62C29.2379 53.8669 27.4585 53.4962 25.7163 53.9625C21.943 54.9731 18.2244 56.1828 14.3712 57.3436C16.129 63.3547 17.8478 69.2448 19.6018 75.2558V75.2461ZM10.9959 82.6599C13.4561 81.9361 15.7778 81.2473 18.1054 80.5684C18.6907 80.3987 18.4566 80.0338 18.3551 79.6826C15.9346 71.3961 13.5173 63.1095 11.1032 54.8229C10.9354 54.2376 10.6994 54.1166 10.1277 54.2981C8.32694 54.8619 6.50859 55.3692 4.7 55.9038C4.24737 56.0384 3.79865 56.1906 3.29724 56.3505C5.87647 65.1691 8.42643 73.8764 10.9959 82.6696V82.6599Z" fill="#8E7A60"/>
<path d="M58.6513 23.0311C64.5043 24.2642 68.1371 28.1037 70.252 33.6134C71.4343 36.6901 71.8303 39.9522 72.0742 43.1909C72.2693 45.7701 71.0499 47.8499 68.656 49.0732C66.2621 50.2965 63.6224 50.751 60.9827 51.0983C56.0331 51.7321 51.0305 51.8439 46.0575 51.4319C43.0315 51.1939 40.0328 50.7647 37.1512 49.7268C34.3359 48.7142 32.5429 46.8256 32.3712 43.7645C32.299 42.471 32.5448 41.1404 32.7926 39.8625C33.2043 37.7359 33.5086 35.5488 34.2559 33.5334C36.2927 28.0433 39.986 24.2446 46.1336 22.8028C45.8507 22.6175 45.5191 22.4751 45.2888 22.2371C43.0452 19.9212 41.9838 17.0591 41.5546 13.9297C41.1761 11.1651 41.2366 8.46684 42.5613 5.8876C44.7874 1.57002 49.8288 -0.819962 54.5756 0.256994C59.3634 1.34371 62.8771 5.52472 63.0508 10.3496C63.162 13.397 62.7718 16.3762 61.3242 19.092C60.5808 20.4792 59.5566 21.722 58.6513 23.0311ZM52.2949 25.1772V25.2904C50.8609 25.2904 49.425 25.2319 48.0027 25.3118C46.9758 25.35 45.9569 25.5085 44.9669 25.784C40.8269 27.0268 38.3686 30.0313 36.7258 33.8475C35.6118 36.4326 35.3855 39.2128 34.9407 41.9481C34.4568 44.9195 35.3504 46.5017 38.195 47.5026C40.9459 48.4781 43.8178 48.8156 46.7014 49.04C51.3409 49.4009 55.9901 49.3814 60.5925 48.6732C62.8728 48.3058 65.117 47.7418 67.3001 46.9875C69.056 46.3925 69.8364 44.7868 69.6413 42.9373C69.5457 41.9988 69.3799 41.0682 69.2511 40.1317C68.9058 37.5408 68.3985 34.9966 67.185 32.6457C65.3393 29.0695 62.6977 26.3517 58.6298 25.5791C56.5637 25.1909 54.4078 25.2982 52.2949 25.1811V25.1772ZM60.6686 10.9719C60.6315 10.6325 60.5984 9.99643 60.4911 9.38576C60.1573 7.47996 59.1767 5.74746 57.7147 4.48018C56.2527 3.2129 54.3985 2.4883 52.4646 2.42847C48.6094 2.28409 44.961 4.92576 44.1104 8.74778C43.2656 12.5386 43.9153 16.1928 46.1199 19.4042C49.3879 24.149 55.4985 23.9208 58.5928 19.0393C60.097 16.6669 60.575 14.0194 60.6686 10.9758V10.9719Z" fill="#8E7A60"/>
<path d="M71.2976 13.5103C71.2976 16.8504 71.2976 20.2003 71.2976 23.5502C71.2976 24.2135 71.1435 24.75 70.4489 24.9627C69.571 25.228 68.8881 24.6369 68.8881 23.5853C68.8881 20.491 68.8725 17.3986 68.8881 14.3043C68.8881 13.7327 68.7652 13.4127 68.2092 13.1162C66.8922 12.4138 66.2581 11.2393 66.2737 9.73118C66.2893 8.22305 66.9858 7.13829 68.2715 6.46324C68.7652 6.20376 68.931 5.93647 68.8842 5.41946C68.853 4.9908 68.853 4.56044 68.8842 4.13179C68.9213 3.39236 69.3115 2.96118 70.0665 2.93777C70.7591 2.91241 71.2215 3.36895 71.2781 4.10838C71.2878 4.22263 71.2878 4.3375 71.2781 4.45175C71.1591 5.48969 71.4088 6.18035 72.4135 6.85735C74.6162 8.34402 74.3451 11.6939 72.0643 13.085C71.8478 13.2254 71.5844 13.3523 71.2976 13.5103ZM71.4927 9.78386C71.4849 9.41596 71.3313 9.06621 71.0657 8.81156C70.8001 8.5569 70.4441 8.4182 70.0762 8.42596C69.7083 8.43372 69.3586 8.58731 69.104 8.85294C68.8493 9.11858 68.7106 9.47449 68.7183 9.84239C68.7222 10.0246 68.7619 10.2042 68.8351 10.371C68.9084 10.5378 69.0138 10.6886 69.1453 10.8147C69.2768 10.9408 69.432 11.0397 69.6017 11.1059C69.7715 11.1721 69.9526 11.2041 70.1348 11.2003C70.3169 11.1965 70.4966 11.1568 70.6634 11.0835C70.8302 11.0102 70.981 10.9048 71.1071 10.7733C71.2332 10.6418 71.3321 10.4867 71.3983 10.3169C71.4645 10.1472 71.4965 9.96602 71.4927 9.78386Z" fill="#8E7A60"/>
<path d="M86.4279 14.9051C86.4279 17.6522 86.4279 20.4304 86.4279 23.2067C86.4416 23.4354 86.4416 23.6647 86.4279 23.8934C86.3479 24.5919 85.8056 25.107 85.1656 25.0406C84.4399 24.9665 84.0243 24.547 84.0184 23.792C84.0184 22.9316 84.0184 22.0731 84.0184 21.2128C84.0184 19.3222 84.0067 17.4317 84.0184 15.5412C84.0184 15.0963 83.9248 14.8369 83.4819 14.6125C82.8535 14.2957 82.3254 13.8107 81.9564 13.2115C81.5874 12.6123 81.3921 11.9224 81.3921 11.2187C81.3921 10.515 81.5874 9.82511 81.9564 9.2259C82.3254 8.62669 82.8535 8.14169 83.4819 7.82494C83.9209 7.60057 84.036 7.34889 84.0223 6.89821C83.995 6.01245 83.9989 5.12279 84.0223 4.23508C84.0418 3.38834 84.4535 2.93961 85.1715 2.91815C85.8895 2.89669 86.4123 3.39225 86.4338 4.23118C86.4572 5.17547 86.4162 6.12366 86.4572 7.066C86.4672 7.19609 86.5044 7.32264 86.5662 7.43754C86.628 7.55245 86.7132 7.65317 86.8162 7.73324C89.9515 9.70181 89.8071 13.0634 86.4279 14.9051ZM85.189 9.81887C85.0019 9.81846 84.8167 9.85653 84.6448 9.93071C84.473 10.0049 84.3183 10.1136 84.1902 10.2501C84.0621 10.3865 83.9634 10.5479 83.9003 10.7241C83.8372 10.9003 83.811 11.0876 83.8233 11.2743C83.8245 11.4534 83.8617 11.6303 83.9328 11.7947C84.0038 11.959 84.1073 12.1073 84.2369 12.2308C84.3666 12.3542 84.5198 12.4503 84.6874 12.5132C84.855 12.5762 85.0336 12.6047 85.2125 12.5971C85.5741 12.5953 85.9211 12.4535 86.1804 12.2014C86.4398 11.9493 86.5914 11.6065 86.6035 11.2451C86.5981 10.8705 86.4476 10.5127 86.1839 10.2467C85.9201 9.98077 85.5635 9.82741 85.189 9.81887Z" fill="#8E7A60"/>
<path d="M78.8717 9.16912C78.8717 10.7729 78.8873 12.3785 78.8619 13.9842C78.8374 14.1769 78.8781 14.3722 78.9775 14.5391C79.0768 14.7059 79.2291 14.8348 79.4102 14.9051C80.7622 15.6153 81.4724 16.7663 81.4646 18.3154C81.4871 19.0083 81.3077 19.6928 80.9481 20.2855C80.5885 20.8782 80.0643 21.3535 79.4394 21.6536C78.979 21.8975 78.8268 22.157 78.8658 22.6291C78.8931 23.0293 78.8931 23.4308 78.8658 23.831C78.8229 24.5782 78.3956 24.9879 77.664 25.0308C77.0046 25.0679 76.5226 24.5606 76.47 23.8368C76.4592 23.6933 76.4592 23.5492 76.47 23.4056C76.5422 22.5257 76.3881 21.9307 75.475 21.3551C73.0967 19.8528 73.3425 16.3079 75.8339 14.9461C76.351 14.6632 76.4836 14.3608 76.4797 13.8223C76.4563 10.6694 76.4797 7.51662 76.4641 4.36379C76.4641 3.6985 76.6222 3.15807 77.3167 2.95321C78.1713 2.69958 78.8619 3.27708 78.8775 4.26039C78.8717 5.90118 78.8717 7.53418 78.8717 9.16912ZM79.057 18.2745C79.044 17.9023 78.8878 17.5495 78.621 17.2896C78.3542 17.0297 77.9974 16.8828 77.625 16.8795C77.4402 16.8853 77.2583 16.9277 77.09 17.0045C76.9218 17.0813 76.7705 17.1908 76.645 17.3266C76.5195 17.4624 76.4223 17.6219 76.3591 17.7957C76.2959 17.9695 76.2679 18.1541 76.2768 18.3389C76.2778 18.5159 76.3141 18.691 76.3836 18.8539C76.4531 19.0167 76.5545 19.1641 76.6816 19.2873C76.8088 19.4105 76.9594 19.5071 77.1244 19.5713C77.2894 19.6356 77.4655 19.6663 77.6425 19.6616C77.8271 19.6672 78.0109 19.6353 78.1828 19.5678C78.3547 19.5003 78.5111 19.3986 78.6426 19.269C78.7741 19.1393 78.878 18.9843 78.9478 18.8134C79.0177 18.6425 79.0522 18.4591 79.0492 18.2745H79.057Z" fill="#8E7A60"/>
<path d="M32.2114 11.5027C32.9567 11.5554 33.3547 11.9592 33.4347 12.6909C33.7566 15.5686 35.0618 16.8816 37.9552 17.2484C38.6634 17.3382 39.1433 17.6971 39.1492 18.4619C39.1492 19.2775 38.6497 19.5916 37.8966 19.7008C35.3603 20.0637 33.9946 21.2304 33.5264 23.3843C33.4797 23.6665 33.4497 23.9512 33.4366 24.2369C33.3664 24.9646 32.9781 25.4387 32.2407 25.4504C31.5032 25.4621 31.0701 25.0271 31.0271 24.2798C30.9179 22.5649 30.2467 21.1582 28.6859 20.3271C28.0265 19.9779 27.2344 19.8354 26.4832 19.7067C25.7321 19.5779 25.2522 19.2267 25.2229 18.4483C25.1995 17.7849 25.7477 17.3186 26.5418 17.2445C29.201 16.9987 30.7033 15.5179 30.9979 12.7962C31.0896 12.0197 31.4154 11.569 32.2114 11.5027ZM33.6512 18.5478L32.2017 17.0475L30.6408 18.4132L32.2407 20.0325L33.6512 18.5478Z" fill="#8E7A60"/>
<path d="M28.7871 30.5485C28.8144 31.3718 28.3832 31.8244 27.4585 31.9142C25.7903 32.08 24.7095 32.9326 24.2393 34.5403C24.1851 34.8198 24.1499 35.1027 24.1339 35.387C24.0325 36.1069 23.6267 36.5576 22.8873 36.5459C22.1986 36.5322 21.7771 36.1303 21.7167 35.4182C21.6015 33.9335 20.9811 32.7746 19.553 32.1932C19.0935 32.0408 18.6184 31.9406 18.1365 31.8947C17.4381 31.7815 17.044 31.3777 17.0479 30.6831C17.0518 29.9886 17.4907 29.5944 18.1599 29.4735C20.6533 29.0306 21.2972 28.4063 21.7127 25.95C21.8318 25.2476 22.2278 24.8359 22.9048 24.834C23.6306 24.834 24.1242 25.3003 24.1164 26.0202C24.0949 27.8717 25.7435 29.5066 27.5521 29.4793C27.8575 29.4579 28.159 29.5583 28.3905 29.7587C28.622 29.9591 28.7646 30.2431 28.7871 30.5485ZM22.8775 31.6079L23.853 30.7143L22.9926 29.7291L21.9 30.7046L22.8775 31.6079Z" fill="#8E7A60"/>
<path d="M8.01074 59.4719C7.69544 59.4768 7.39061 59.3588 7.16082 59.1429C6.93103 58.9269 6.79431 58.63 6.77964 58.315C6.76774 58.1524 6.78835 57.989 6.8403 57.8344C6.89225 57.6798 6.97449 57.5372 7.0822 57.4147C7.18992 57.2923 7.32097 57.1926 7.46767 57.1214C7.61436 57.0502 7.77378 57.0089 7.9366 57C8.26611 57.0036 8.58102 57.1365 8.81349 57.37C9.04595 57.6036 9.17737 57.9191 9.17939 58.2486C9.17971 58.5638 9.05834 58.867 8.84061 59.0949C8.62289 59.3228 8.32562 59.4579 8.01074 59.4719Z" fill="#8E7A60"/>
</svg>
