<svg width="41" height="42" viewBox="0 0 41 42" fill="none" xmlns="http://www.w3.org/2000/svg">
<circle cx="20.3736" cy="21" r="20.3447" fill="#BEA88A"/>
<circle cx="20.3736" cy="21" r="20.3447" fill="#BEA88A"/>
<path d="M21.1664 13.0907C21.1664 12.8762 21.2516 12.6706 21.4032 12.5189C21.5549 12.3673 21.7606 12.2821 21.975 12.2821C24.119 12.2844 26.1744 13.1371 27.6904 14.6532C29.2064 16.1692 30.0591 18.2247 30.0615 20.3687C30.0615 20.5831 29.9763 20.7888 29.8247 20.9405C29.673 21.0921 29.4673 21.1773 29.2529 21.1773C29.0384 21.1773 28.8327 21.0921 28.6811 20.9405C28.5294 20.7888 28.4442 20.5831 28.4442 20.3687C28.4423 18.6535 27.7601 17.0091 26.5473 15.7963C25.3345 14.5835 23.6902 13.9013 21.975 13.8994C21.7606 13.8994 21.5549 13.8142 21.4032 13.6625C21.2516 13.5109 21.1664 13.3052 21.1664 13.0907ZM21.975 17.134C22.8329 17.134 23.6556 17.4748 24.2622 18.0814C24.8688 18.688 25.2096 19.5108 25.2096 20.3687C25.2096 20.5831 25.2948 20.7888 25.4465 20.9405C25.5981 21.0921 25.8038 21.1773 26.0183 21.1773C26.2327 21.1773 26.4384 21.0921 26.5901 20.9405C26.7417 20.7888 26.8269 20.5831 26.8269 20.3687C26.8256 19.0822 26.314 17.8489 25.4044 16.9392C24.4948 16.0296 23.2614 15.518 21.975 15.5167C21.7606 15.5167 21.5549 15.6019 21.4032 15.7535C21.2516 15.9052 21.1664 16.1109 21.1664 16.3254C21.1664 16.5398 21.2516 16.7455 21.4032 16.8972C21.5549 17.0488 21.7606 17.134 21.975 17.134ZM29.3281 25.8182C29.7967 26.2881 30.0598 26.9247 30.0598 27.5884C30.0598 28.252 29.7967 28.8886 29.3281 29.3585L28.5922 30.2068C21.9694 36.5475 5.853 20.435 12.0958 13.791L13.0257 12.9824C13.4962 12.5268 14.127 12.2748 14.7819 12.2809C15.4367 12.2869 16.0628 12.5505 16.5247 13.0147C16.5498 13.0398 18.0482 14.9862 18.0482 14.9862C18.4928 15.4533 18.7404 16.0738 18.7393 16.7187C18.7382 17.3636 18.4887 17.9832 18.0426 18.4489L17.1062 19.6263C17.6244 20.8855 18.3863 22.0298 19.3481 22.9936C20.31 23.9574 21.4528 24.7217 22.7109 25.2424L23.8956 24.3004C24.3613 23.8546 24.9808 23.6053 25.6255 23.6044C26.2702 23.6035 26.8904 23.851 27.3574 24.2955C27.3574 24.2955 29.303 25.7931 29.3281 25.8182ZM28.2154 26.994C28.2154 26.994 26.2803 25.5053 26.2552 25.4802C26.0886 25.315 25.8635 25.2223 25.6289 25.2223C25.3943 25.2223 25.1692 25.315 25.0026 25.4802C24.9808 25.5028 23.3497 26.8023 23.3497 26.8023C23.2398 26.8898 23.109 26.9472 22.9702 26.9687C22.8314 26.9903 22.6893 26.9753 22.5581 26.9253C20.9282 26.3184 19.4478 25.3684 18.2171 24.1395C16.9864 22.9106 16.0342 21.4316 15.425 19.8026C15.371 19.6695 15.3533 19.5245 15.3739 19.3824C15.3946 19.2402 15.4526 19.1062 15.5422 18.9939C15.5422 18.9939 16.8417 17.3621 16.8636 17.341C17.0287 17.1744 17.1214 16.9493 17.1214 16.7147C17.1214 16.4801 17.0287 16.255 16.8636 16.0884C16.8385 16.0642 15.3498 14.1274 15.3498 14.1274C15.1807 13.9758 14.96 13.8946 14.733 13.9005C14.5059 13.9063 14.2897 13.9988 14.1287 14.159L13.1988 14.9676C8.63637 20.4536 22.6025 33.6452 27.4099 29.1022L28.1466 28.2531C28.3193 28.0932 28.4229 27.8724 28.4358 27.6375C28.4486 27.4025 28.3696 27.1717 28.2154 26.994Z" fill="#F5F5F5"/>
</svg>
