<svg width="36" height="36" viewBox="0 0 36 36" fill="none" xmlns="http://www.w3.org/2000/svg">
    <path
        d="M35.5368 33.5599L24.7916 22.839C26.9696 20.15 28.0767 16.7507 27.8999 13.2947C27.7232 9.83873 26.2751 6.5701 23.8342 4.11723C22.5436 2.81414 21.0078 1.7795 19.3153 1.073C17.6228 0.366493 15.8072 0.00210942 13.9732 0.000868335C12.136 -0.00377037 10.316 0.35543 8.61827 1.05775C6.92057 1.76007 5.37874 2.7916 4.08173 4.09283C1.46749 6.72106 0 10.2773 0 13.9843C0 17.6913 1.46749 21.2475 4.08173 23.8758C5.37874 25.177 6.92057 26.2085 8.61827 26.9108C10.316 27.6132 12.136 27.9724 13.9732 27.9677C17.1908 27.9771 20.3119 26.8691 22.8035 24.8332L33.5488 35.5784C33.6814 35.7118 33.8392 35.8177 34.0129 35.8899C34.1866 35.9621 34.3729 35.9993 34.5611 35.9992C34.7483 35.9991 34.9337 35.9619 35.1064 35.8897C35.2791 35.8174 35.4358 35.7116 35.5673 35.5784C35.6986 35.4443 35.8021 35.2855 35.8717 35.1112C35.9413 34.9369 35.9757 34.7505 35.9729 34.5628C35.97 34.3751 35.93 34.1898 35.8552 34.0177C35.7804 33.8456 35.6721 33.69 35.5368 33.5599ZM6.04538 21.8572C3.9622 19.7666 2.7925 16.9356 2.7925 13.9843C2.7925 11.033 3.9622 8.20197 6.04538 6.11138C7.08459 5.06963 8.32079 4.24518 9.68189 3.68608C11.043 3.12698 12.5018 2.84442 13.9732 2.85488C15.4355 2.85103 16.8841 3.13681 18.2353 3.69574C19.5866 4.25467 20.8138 5.07567 21.8461 6.11138C23.9293 8.20197 25.099 11.033 25.099 13.9843C25.099 16.9356 23.9293 19.7666 21.8461 21.8572C20.8138 22.8929 19.5866 23.7139 18.2353 24.2729C16.8841 24.8318 15.4355 25.1176 13.9732 25.1137C12.5018 25.1242 11.043 24.8416 9.68189 24.2825C8.32079 23.7234 7.08459 22.899 6.04538 21.8572Z"
        fill="#505051" />
    <path
        d="M8.90535 6.22723C8.56146 6.38641 8.29459 6.67531 8.16317 7.03074C8.03174 7.38617 8.04645 7.77919 8.20405 8.12381C8.36545 8.46554 8.65528 8.72968 9.01049 8.85874C9.36569 8.9878 9.7575 8.97133 10.1006 8.81291C11.5446 8.2627 13.116 8.13743 14.6289 8.4519C16.1418 8.76638 17.5331 9.50745 18.6383 10.5875C18.9014 10.8327 19.2483 10.968 19.6079 10.9656C19.8053 10.9651 20.0004 10.9237 20.1809 10.8439C20.3615 10.7641 20.5235 10.6477 20.6568 10.5021C20.7839 10.3641 20.8826 10.2023 20.9471 10.0261C21.0116 9.84988 21.0408 9.66266 21.0328 9.47517C21.0249 9.28767 20.9801 9.10357 20.9009 8.93343C20.8217 8.76328 20.7098 8.61042 20.5714 8.4836C19.0538 7.01891 17.1437 6.02609 15.073 5.62557C13.0022 5.22505 10.8597 5.43406 8.90535 6.22723Z"
        fill="#505051" />
</svg>