<svg width="90" height="91" viewBox="0 0 90 91" fill="none" xmlns="http://www.w3.org/2000/svg">
<path d="M54.4128 26.8482C54.7172 27.0743 54.9835 27.2709 55.2583 27.4823C62.6167 32.8452 66.9396 40.0366 68.0092 49.0734C69.8441 64.5808 59.095 79.2279 43.8244 82.2254C40.8188 82.8183 37.7455 82.9912 34.6924 82.739C33.6355 82.6545 33.1049 82.1049 33.1958 81.2255C33.2867 80.3461 33.9039 79.9572 34.982 80.0756C49.2803 81.6272 62.7774 71.3283 65.1026 57.1062C65.6986 53.5509 65.614 49.9147 64.8532 46.3909C62.7203 47.5768 60.6677 48.7352 59.1288 50.5997C57.6491 52.3838 57.8225 54.4829 58.0191 56.5862C58.1861 58.3745 58.7462 60.1269 58.3192 61.9681C57.3659 66.0796 52.7639 70.5441 48.9442 70.9838C46.8726 71.2248 45.1392 70.3708 44.4776 68.3879C43.9464 66.7304 43.6331 65.0107 43.5453 63.2724C43.3593 60.0635 43.3889 56.8419 43.3339 53.6246C43.3339 53.5929 43.3339 53.5633 43.3339 53.5316C43.1775 50.7836 42.8013 50.5616 40.1505 50.9294C37.933 51.2338 35.6711 51.5636 33.4558 51.4304C29.7375 51.219 27.3382 48.7817 26.6385 45.0888C26.0171 41.7911 27.2093 39.096 29.3253 36.6798C29.8981 36.0266 30.4414 35.3459 30.9487 34.7371C27.241 34.3144 23.6622 32.8812 20.3667 30.6426C16.8736 33.4156 14.1001 36.9896 12.2811 41.0619C12.2265 41.1823 12.1966 41.3125 12.1933 41.4446C12.1901 41.5768 12.2134 41.7083 12.2621 41.8313C13.4226 43.8966 14.6402 45.9301 15.7986 47.9954C16.0261 48.421 16.3392 48.7949 16.7183 49.0936C17.0974 49.3923 17.5342 49.6093 18.0012 49.7309C18.9021 49.9794 19.7809 50.3018 20.6288 50.6948C22.6201 51.6439 23.4191 53.3139 22.7279 55.4109C22.1656 57.121 21.3539 58.7466 20.6478 60.4081C20.4872 60.7822 20.3223 61.1521 20.1341 61.5115C19.2886 63.1138 19.1195 64.5555 20.1511 66.3058C21.5991 68.7642 21.9732 71.5905 21.6498 74.459C21.6497 74.6412 21.6919 74.821 21.7729 74.9842C21.854 75.1474 21.9717 75.2896 22.117 75.3997C23.7024 76.3277 25.3195 77.2028 26.9493 78.0526C27.9132 78.5536 28.2535 79.1539 27.9005 79.9551C27.5475 80.7562 26.8901 80.9465 25.9198 80.5131C15.9719 76.074 9.67045 68.5571 7.74048 57.8291C5.73653 46.6467 9.24769 37.147 17.6081 29.4503C17.7434 29.3235 17.8765 29.1924 18.0943 28.9874L17.3967 28.3744C12.5348 24.1022 8.87141 18.9422 5.94792 13.2158C5.59279 12.5203 5.69637 11.8671 6.29671 11.3555C12.5834 5.98842 19.4746 1.75643 27.7653 0.338022C34.6819 -0.843635 40.7931 1.12438 46.2257 5.43458C46.5196 5.66711 46.8155 5.89963 47.0988 6.14273C47.8555 6.7938 47.9591 7.41105 47.4327 8.08961C46.9064 8.76816 46.2004 8.8506 45.3992 8.18896C43.2409 6.40908 40.9262 4.89554 38.2987 3.90202C36.3036 3.1418 34.193 2.72926 32.0585 2.68231C32.2699 3.00785 32.3862 3.2446 32.5426 3.45811C35.9946 8.16994 39.4402 12.8839 42.9217 17.5746C43.2183 17.948 43.6313 18.2115 44.095 18.3229C47.7816 19.086 51.4787 19.792 55.3556 20.3247C53.8787 18.2108 52.3989 16.0927 50.9164 13.9704C50.8276 13.8415 50.7177 13.7294 50.6247 13.6047C50.0349 12.812 50.0857 12.0447 50.7537 11.5521C51.4216 11.0596 52.1361 11.1949 52.7005 11.9453C53.7575 13.3405 54.9095 14.6934 55.7635 16.1984C57.5244 19.3206 59.5368 22.149 62.5787 24.1973C63.661 24.9245 64.4304 26.1167 65.3436 27.0976L65.555 26.9179C65.4028 25.7024 65.1978 24.4912 65.109 23.2715C64.6418 16.8833 67.244 11.939 72.3173 8.20376C75.8031 5.63751 79.7159 3.94641 83.8696 2.81549C84.6645 2.6041 85.2331 2.8641 85.603 3.53843C88.3384 8.53775 90.2113 13.7865 89.9809 19.5806C89.7695 25.0471 87.0045 29.1206 82.7303 32.2977C79.7708 34.4983 76.4563 36.0012 72.9747 37.1596C72.7633 37.2273 72.5752 37.3076 72.3744 37.3816C72.9663 39.2207 73.6237 40.9963 74.1078 42.8185C79.644 63.6846 66.3181 85.0833 45.1751 89.3111C35.572 91.242 25.5942 89.364 17.3502 84.074C9.10606 78.784 3.24134 70.4962 0.995119 60.9619C-0.118462 56.3005 -0.299502 51.465 0.462418 46.7334C0.656894 45.5137 1.12829 45.0994 2.04994 45.2368C2.97159 45.3742 3.2929 45.9935 3.10688 47.1604C2.01612 54.4448 2.99907 61.4417 6.37916 67.9842C11.6279 78.1498 19.8762 84.5232 31.1517 86.7131C48.6546 90.1123 65.276 79.712 70.8059 63.6994C75.6678 49.6252 70.7573 33.416 58.8033 24.47C58.2727 24.0747 57.9239 23.9881 57.3807 24.47C56.4654 25.3008 55.4507 26.028 54.4128 26.8482ZM64.0542 43.6873C64.0627 43.6291 64.0627 43.57 64.0542 43.5118C63.9886 43.3005 63.9146 43.0891 63.8428 42.8946C61.6782 37.0539 57.9641 32.452 52.7851 29.0022C52.1509 28.5794 51.688 28.5984 51.0454 29.0022C46.8028 31.6424 42.2918 33.6295 37.3284 34.475C36.8465 34.5575 36.3138 34.6082 35.9121 34.8492C35.0306 35.3776 34.2083 36.0033 33.3755 36.6164C31.8788 37.724 30.5767 39.0135 29.765 40.7236C27.7906 44.8859 30.3822 49.0121 34.9461 48.8282C37.0874 48.7416 39.214 48.3125 41.3511 48.0863C43.6341 47.8432 44.9278 48.6634 45.5134 50.8829C45.8468 52.1801 46.0368 53.5099 46.0799 54.8486C46.1729 57.3429 46.063 59.8458 46.1517 62.3423C46.1963 63.805 46.3711 65.2609 46.6739 66.6926C47.0184 68.2886 47.9084 68.6775 49.4705 68.147C49.7345 68.0534 49.9928 67.9447 50.2442 67.8214C54.4107 65.8006 56.2624 62.114 55.4169 57.3662C54.5586 52.5656 55.9686 48.7521 60.1752 46.1077C61.4647 45.2917 62.7626 44.4927 64.0542 43.6873ZM54.7193 23.3941L54.6094 23.1425C54.2859 23.0685 53.9752 22.984 53.6391 22.9206C50.3055 22.2716 46.974 21.6036 43.632 21.0033C43.1332 20.9281 42.624 21.0363 42.1988 21.3077C37.8188 24.4658 33.4706 27.6683 29.116 30.8624C28.8729 31.0421 28.6489 31.2429 28.3466 31.4966C30.6167 32.1162 32.9834 32.302 35.3224 32.0441C39.8735 31.579 44.04 29.9555 47.9612 27.6979C50.2696 26.3662 52.468 24.84 54.7193 23.4004V23.3941ZM18.9948 72.8588C19.0096 70.5145 18.4684 68.4471 17.3037 66.5869C16.4708 65.2531 16.3334 63.9065 16.8809 62.4818C17.3037 61.3466 17.8152 60.2432 18.2908 59.1249C18.8996 57.6938 19.5592 56.2818 20.1088 54.8274C20.4829 53.8276 20.2589 53.4175 19.2632 52.9862C18.61 52.6921 17.9333 52.4531 17.2403 52.2717C15.4879 51.8363 14.2491 50.792 13.4163 49.2214C12.9343 48.3125 12.4291 47.4162 11.9365 46.5157C11.6279 45.9576 11.3024 45.4059 10.9536 44.7717C7.98571 54.5611 11.3785 66.3967 19.0011 72.8588H18.9948ZM18.183 25.4636C20.051 27.2449 22.1498 28.7671 24.4232 29.9894C25.0299 30.3149 25.4527 30.2811 26.0107 29.8689C30.1476 26.7995 34.3098 23.7682 38.4615 20.7221C38.6729 20.5699 38.8568 20.3924 39.066 20.2169C38.973 20.1429 38.9519 20.1133 38.9244 20.107C35.5422 19.4284 32.1452 18.7457 28.7524 18.0861C28.5093 18.0548 28.2632 18.1143 28.0612 18.2531C24.7783 20.6291 21.5082 23.0305 18.1894 25.4636H18.183ZM39.4381 17.4308C39.0872 16.9298 38.899 16.6508 38.6982 16.3739L30.0651 4.59749C28.7397 2.78589 28.7271 2.73305 26.5477 3.26997C24.8566 3.69275 23.1887 4.2656 21.394 4.80676C23.4064 7.5548 25.3871 10.0196 27.1015 12.6598C28.4248 14.7124 29.9848 16.078 32.513 16.0801C32.5741 16.0916 32.6341 16.1078 32.6927 16.1287L39.4381 17.4308ZM73.2009 34.2636C77.9846 32.4119 82.2462 30.1923 85.1676 26.0195C86.2748 24.4317 86.96 22.5884 87.1588 20.6629C83.8527 22.0222 80.6291 23.337 77.4223 24.692C77.1644 24.8019 76.9721 25.1803 76.8473 25.4762C75.7904 27.9389 74.7609 30.41 73.7273 32.8748C73.5708 33.2701 73.4313 33.6675 73.2073 34.2573L73.2009 34.2636ZM70.2288 14.1226C66.5443 18.3377 67.1637 26.2668 70.6516 33.3145C71.607 31.0421 72.442 28.7929 73.4926 26.6516C74.2938 25.0218 74.3276 23.6033 73.5222 21.944C72.3004 19.4052 71.328 16.7523 70.2351 14.1163L70.2288 14.1226ZM16.0966 23.6879L24.7995 17.3061L9.80997 14.3911L9.57322 14.7018C11.7399 17.6634 13.8834 20.627 16.103 23.6816L16.0966 23.6879ZM82.0179 6.16175C78.4539 7.44488 75.3338 9.02606 72.6428 11.3682C72.4484 11.5373 72.2771 11.9749 72.3596 12.1821C73.4799 15.0041 74.6489 17.8071 75.8855 20.8109C77.9571 15.8687 79.9463 11.1167 82.0242 6.15541L82.0179 6.16175ZM10.1292 11.4169L10.2327 11.7508L25.3195 14.687L18.8531 5.87004L10.1292 11.4169ZM84.4784 7.1891L78.5849 21.3225C81.4979 20.1176 84.1487 19.031 86.7868 17.9086C86.9087 17.8424 87.0132 17.7484 87.0919 17.6341C87.1705 17.5199 87.221 17.3886 87.2392 17.2511C87.0553 13.7696 85.9877 10.5417 84.4848 7.1891H84.4784Z" fill="#8E7A60"/>
</svg>
