<svg width="37" height="36" viewBox="0 0 37 36" fill="none" xmlns="http://www.w3.org/2000/svg">
<g clip-path="url(#clip0_20_357)">
<path d="M31.9326 36H28.9326V28.4355C28.9314 27.2595 28.4637 26.132 27.6322 25.3004C26.8006 24.4689 25.6731 24.0012 24.4971 24H12.3681C11.1921 24.0012 10.0646 24.4689 9.23306 25.3004C8.4015 26.132 7.93381 27.2595 7.93262 28.4355V36H4.93262V28.4355C4.935 26.4642 5.71914 24.5743 7.11305 23.1804C8.50697 21.7865 10.3968 21.0024 12.3681 21H24.4971C26.4684 21.0024 28.3583 21.7865 29.7522 23.1804C31.1461 24.5743 31.9302 26.4642 31.9326 28.4355V36Z" fill="#595959"/>
<path d="M18.4326 18C16.6526 18 14.9125 17.4722 13.4325 16.4832C11.9524 15.4943 10.7989 14.0887 10.1177 12.4442C9.43652 10.7996 9.25829 8.99002 9.60555 7.24419C9.95282 5.49836 10.81 3.89472 12.0687 2.63604C13.3273 1.37737 14.931 0.520204 16.6768 0.172937C18.4226 -0.17433 20.2322 0.00389957 21.8768 0.685088C23.5213 1.36628 24.9269 2.51983 25.9158 3.99987C26.9048 5.47991 27.4326 7.21997 27.4326 9C27.4302 11.3862 26.4813 13.674 24.794 15.3613C23.1066 17.0486 20.8188 17.9976 18.4326 18ZM18.4326 3C17.2459 3 16.0859 3.3519 15.0992 4.01119C14.1125 4.67048 13.3435 5.60755 12.8893 6.7039C12.4352 7.80026 12.3164 9.00666 12.5479 10.1705C12.7794 11.3344 13.3509 12.4035 14.19 13.2426C15.0291 14.0818 16.0982 14.6532 17.2621 14.8847C18.426 15.1162 19.6324 14.9974 20.7287 14.5433C21.8251 14.0892 22.7621 13.3201 23.4214 12.3334C24.0807 11.3467 24.4326 10.1867 24.4326 9C24.4326 7.40871 23.8005 5.88258 22.6753 4.75736C21.55 3.63215 20.0239 3 18.4326 3Z" fill="#595959"/>
</g>
<defs>
<clipPath id="clip0_20_357">
<rect width="36" height="36" fill="white" transform="translate(0.432617)"/>
</clipPath>
</defs>
</svg>
