<svg width="26" height="25" viewBox="0 0 26 25" fill="none" xmlns="http://www.w3.org/2000/svg">
<path d="M0.494629 24.7751L2.25464 18.1951C0.824341 15.6237 0.369877 12.6226 0.974731 9.74299C1.57959 6.86342 3.20317 4.29878 5.54718 2.52018C7.89119 0.741585 10.7982 -0.131525 13.7343 0.0612391C16.6704 0.254003 19.4384 1.49969 21.5297 3.56949C23.6211 5.63928 24.8954 8.39418 25.1185 11.3281C25.3417 14.2621 24.4988 17.178 22.7446 19.5403C20.9904 21.9026 18.4427 23.5527 15.5695 24.1873C12.6964 24.822 9.69069 24.3987 7.10461 22.9951L0.494629 24.7751ZM7.43463 20.5351L7.85461 20.7851C9.9312 22.0228 12.3889 22.4579 14.7642 22.0084C17.1395 21.5589 19.2682 20.2558 20.7489 18.3448C22.2296 16.4339 22.96 14.0472 22.8022 11.6349C22.6444 9.22264 21.6094 6.95143 19.8925 5.24964C18.1755 3.54786 15.8952 2.53312 13.4816 2.3968C11.068 2.26047 8.68785 3.01199 6.79016 4.50962C4.89248 6.00725 3.60839 8.14747 3.17999 10.5267C2.7516 12.9059 3.20855 15.3596 4.46466 17.4251L4.72467 17.8451L3.72467 21.5251L7.43463 20.5351Z" fill="white"/>
<path fill-rule="evenodd" clip-rule="evenodd" d="M17.4046 14.0151C17.1654 13.8182 16.8836 13.6795 16.5817 13.6101C16.2797 13.5407 15.9657 13.5424 15.6645 13.6151C15.2045 13.8051 14.9246 14.5151 14.6645 14.8751C14.6009 14.9586 14.5095 15.0166 14.4068 15.0386C14.3041 15.0607 14.1969 15.0452 14.1046 14.9951C12.4548 14.3423 11.0713 13.1559 10.1746 11.6251C10.0978 11.5284 10.0612 11.4059 10.0724 11.283C10.0836 11.1601 10.1416 11.0463 10.2346 10.9651C10.5696 10.6462 10.8175 10.2468 10.9546 9.80506C10.9738 9.32786 10.8632 8.85438 10.6346 8.43506C10.451 7.84154 10.1045 7.31145 9.63458 6.90506C9.38915 6.78918 9.11502 6.74824 8.84643 6.78737C8.57785 6.8265 8.32674 6.94396 8.12457 7.12506C7.77865 7.42607 7.50408 7.8003 7.32074 8.22061C7.1374 8.64091 7.04989 9.09675 7.06457 9.55506C7.06768 9.81475 7.10121 10.0732 7.16455 10.3251C7.32164 10.9266 7.57134 11.5002 7.9046 12.0251C8.13434 12.4321 8.39157 12.823 8.67456 13.1951C9.55163 14.4348 10.6625 15.4912 11.9446 16.3051C12.6001 16.7183 13.3015 17.0538 14.0346 17.3051C14.7917 17.6496 15.6284 17.781 16.4546 17.6851C16.9281 17.6146 17.3771 17.4292 17.7624 17.145C18.1477 16.8608 18.4574 16.4866 18.6645 16.0551C18.7767 15.7902 18.8114 15.4989 18.7646 15.2151C18.6446 14.6351 17.8646 14.2851 17.4046 14.0151Z" fill="white"/>
</svg>
