<svg width="31" height="22" viewBox="0 0 31 22" fill="none" xmlns="http://www.w3.org/2000/svg">
<path d="M30.1538 7.48615C30.1538 6.6219 29.9836 5.76612 29.653 4.96766C29.3223 4.16921 28.8375 3.44371 28.2265 2.83259C27.6154 2.22148 26.89 1.73672 26.0916 1.40599C25.2933 1.07526 24.4376 0.905029 23.5735 0.905029H6.73407C4.98991 0.908453 3.31819 1.60292 2.08488 2.83638C0.85157 4.06984 0.157232 5.74178 0.153809 7.48615V15.3239C0.157232 17.0683 0.85157 18.7402 2.08488 19.9737C3.31819 21.2071 4.98991 21.9016 6.73407 21.905H23.5735C24.4376 21.905 25.2933 21.7348 26.0916 21.4041C26.89 21.0733 27.6154 20.5886 28.2265 19.9775C28.8375 19.3663 29.3223 18.6408 29.653 17.8424C29.9836 17.0439 30.1538 16.1881 30.1538 15.3239V7.48615ZM20.2574 12.0074L12.7186 15.7385C12.4207 15.8939 11.4233 15.7385 11.4233 15.3498V7.66752C11.4233 7.33069 12.4466 7.11046 12.7186 7.29183L19.9465 11.1783C20.2445 11.3856 20.5683 11.8261 20.2574 12.0074Z" fill="white"/>
</svg>
